<svg xmlns="http://www.w3.org/2000/svg" viewBox="0 0 32 32" width="32" height="32">
  <defs>
    <linearGradient id="grad1" x1="0%" y1="0%" x2="100%" y2="100%">
      <stop offset="0%" style="stop-color:#4f46e5;stop-opacity:1" />
      <stop offset="100%" style="stop-color:#7c3aed;stop-opacity:1" />
    </linearGradient>
  </defs>
  
  <!-- Background circle -->
  <circle cx="16" cy="16" r="15" fill="url(#grad1)" stroke="#1e1b4b" stroke-width="0.5"/>
  
  <!-- AI/ML icon elements -->
  <!-- Neural network nodes -->
  <circle cx="10" cy="10" r="1.5" fill="white" opacity="0.9"/>
  <circle cx="22" cy="10" r="1.5" fill="white" opacity="0.9"/>
  <circle cx="16" cy="16" r="1.5" fill="white" opacity="0.9"/>
  <circle cx="10" cy="22" r="1.5" fill="white" opacity="0.9"/>
  <circle cx="22" cy="22" r="1.5" fill="white" opacity="0.9"/>
  
  <!-- Neural network connections -->
  <line x1="10" y1="10" x2="16" y2="16" stroke="white" stroke-width="0.8" opacity="0.6"/>
  <line x1="22" y1="10" x2="16" y2="16" stroke="white" stroke-width="0.8" opacity="0.6"/>
  <line x1="16" y1="16" x2="10" y2="22" stroke="white" stroke-width="0.8" opacity="0.6"/>
  <line x1="16" y1="16" x2="22" y2="22" stroke="white" stroke-width="0.8" opacity="0.6"/>
  <line x1="10" y1="10" x2="22" y2="10" stroke="white" stroke-width="0.5" opacity="0.4"/>
  <line x1="10" y1="22" x2="22" y2="22" stroke="white" stroke-width="0.5" opacity="0.4"/>
  
  <!-- Chart/tracking elements -->
  <path d="M 6 26 Q 12 20 18 24 Q 24 28 26 22" stroke="white" stroke-width="1.2" fill="none" opacity="0.7"/>
  <circle cx="8" cy="24" r="0.8" fill="white" opacity="0.8"/>
  <circle cx="16" cy="22" r="0.8" fill="white" opacity="0.8"/>
  <circle cx="24" cy="24" r="0.8" fill="white" opacity="0.8"/>
</svg>